<svg width="97" height="86" viewBox="0 0 97 86" fill="none" xmlns="http://www.w3.org/2000/svg">
<path fill-rule="evenodd" clip-rule="evenodd" d="M48.1465 83.941C51.1819 82.2702 94.1465 45.5805 94.1465 30.3054C94.1465 14.6728 81.4737 2 65.841 2C59.1117 2 52.9309 4.34827 48.0732 8.27006C43.2156 4.34827 37.0348 2 30.3054 2C14.6728 2 2 14.6728 2 30.3054C2 45.5805 44.9646 82.2702 48 83.941V84H48C48.016 84 48.0405 83.9926 48.0732 83.978C48.106 83.9926 48.1305 84 48.1464 84H48.1465V83.941Z" fill="url(#paint0_linear_256_17)"/>
<path d="M48.1465 83.941L47.1821 82.1888C46.5433 82.5404 46.1465 83.2118 46.1465 83.941H48.1465ZM48.0732 8.27006L46.8169 9.82621C47.5499 10.418 48.5966 10.418 49.3296 9.82621L48.0732 8.27006ZM48 83.941H50C50 83.2118 49.6032 82.5404 48.9644 82.1888L48 83.941ZM48 84H46C46 85.1046 46.8954 86 48 86V84ZM48.0732 83.978L48.888 82.1515C48.3695 81.9202 47.777 81.9202 47.2585 82.1515L48.0732 83.978ZM48.1465 84V86C49.2511 86 50.1465 85.1046 50.1465 84H48.1465ZM92.1465 30.3054C92.1465 31.7857 91.6136 33.7156 90.4902 36.0641C89.3798 38.3855 87.7634 40.9707 85.7674 43.7202C81.7758 49.2186 76.3882 55.2085 70.8599 60.8214C65.3397 66.4259 59.7208 71.6129 55.2946 75.501C53.0818 77.4449 51.1739 79.0582 49.7319 80.2322C49.01 80.8198 48.4127 81.2911 47.9566 81.6361C47.7283 81.8089 47.5433 81.944 47.4008 82.0435C47.2458 82.1517 47.1817 82.1891 47.1821 82.1888L49.1109 85.6931C49.6848 85.3772 50.8459 84.4832 52.2573 83.3341C53.7459 82.1222 55.6926 80.4756 57.9345 78.5062C62.418 74.5677 68.1093 69.3143 73.7097 63.6282C79.3019 57.9505 84.8452 51.7994 89.0043 46.0701C91.0836 43.2059 92.8476 40.4056 94.0986 37.7902C95.3367 35.202 96.1465 32.6439 96.1465 30.3054H92.1465ZM65.841 4C80.3691 4 92.1465 15.7773 92.1465 30.3054H96.1465C96.1465 13.5682 82.5783 0 65.841 0V4ZM49.3296 9.82621C53.8444 6.18117 59.5853 4 65.841 4V0C58.6382 0 52.0173 2.51537 46.8169 6.71392L49.3296 9.82621ZM49.3296 6.71392C44.1292 2.51537 37.5083 0 30.3054 0V4C36.5612 4 42.3021 6.18117 46.8169 9.82621L49.3296 6.71392ZM30.3054 0C13.5682 0 0 13.5682 0 30.3054H4C4 15.7773 15.7773 4 30.3054 4V0ZM0 30.3054C0 32.6439 0.809786 35.202 2.04786 37.7902C3.29892 40.4056 5.06285 43.2059 7.14215 46.0701C11.3013 51.7994 16.8446 57.9505 22.4368 63.6282C28.0372 69.3143 33.7285 74.5677 38.212 78.5062C40.4539 80.4756 42.4006 82.1222 43.8892 83.3341C45.3006 84.4832 46.4617 85.3772 47.0356 85.6931L48.9644 82.1888C48.9647 82.1891 48.9007 82.1517 48.7457 82.0435C48.6032 81.944 48.4182 81.8089 48.1898 81.6361C47.7338 81.2911 47.1365 80.8198 46.4146 80.2322C44.9726 79.0582 43.0647 77.4449 40.8519 75.501C36.4257 71.6129 30.8068 66.4259 25.2866 60.8214C19.7583 55.2085 14.3707 49.2186 10.3791 43.7202C8.38308 40.9707 6.76669 38.3855 5.65627 36.0641C4.53286 33.7156 4 31.7857 4 30.3054H0ZM50 84V83.941H46V84H50ZM48 82H48V86H48V82ZM47.2585 82.1515C47.2907 82.1371 47.3595 82.1077 47.4542 82.0793C47.5305 82.0563 47.7315 82 48 82V86C48.4778 86 48.8435 85.8244 48.888 85.8045L47.2585 82.1515ZM47.2585 85.8045C47.3031 85.8244 47.6688 86 48.1464 86V82C48.4149 82 48.6159 82.0563 48.6922 82.0792C48.7869 82.1077 48.8557 82.1371 48.888 82.1515L47.2585 85.8045ZM48.1464 86H48.1465V82H48.1464V86ZM50.1465 84V83.941H46.1465V84H50.1465Z" fill="white"/>
<g filter="url(#filter0_d_256_17)">
<path d="M36.964 18.6032C33.6702 19.4887 31.7179 22.8767 32.6034 26.1705L33.4051 29.1525C34.2906 32.4463 37.6786 34.3986 40.9724 33.513C44.2662 32.6275 46.2185 29.2395 45.333 25.9457L44.5313 22.9637C43.6458 19.6699 40.2578 17.7176 36.964 18.6032Z" fill="#F5F5F5"/>
<path d="M59.2598 18.7324C55.986 17.7756 52.5564 19.654 51.5996 22.9278L50.7334 25.8917C49.7767 29.1655 51.655 32.595 54.9288 33.5518C58.2027 34.5086 61.6322 32.6303 62.589 29.3564L63.4552 26.3926C64.412 23.1187 62.5337 19.6892 59.2598 18.7324Z" fill="#F5F5F5"/>
<path d="M25.5152 33.5209C22.4692 35.0557 21.2441 38.769 22.7789 41.815L23.4736 43.1938C25.0083 46.2398 28.7217 47.4649 31.7677 45.9301C34.8136 44.3954 36.0387 40.682 34.504 37.6361L33.8093 36.2573C32.2746 33.2113 28.5612 31.9862 25.5152 33.5209Z" fill="#F5F5F5"/>
<path d="M71.4002 33.5629C68.3335 32.0697 64.6373 33.3453 63.1441 36.4119L62.4683 37.8C60.9752 40.8666 62.2506 44.5629 65.3173 46.0561C68.384 47.5492 72.0802 46.2737 73.5733 43.2071L74.2492 41.8189C75.7423 38.7524 74.4669 35.056 71.4002 33.5629Z" fill="#F5F5F5"/>
<path d="M54.6699 40.8615C51.2893 36.7565 45.0029 36.7565 41.6223 40.8615L32.6124 51.802C28.8821 56.3316 32.1042 63.1592 37.9721 63.1592C38.8105 63.1592 39.6374 62.964 40.3873 62.5891L41.4979 62.0336C45.683 59.941 50.6092 59.941 54.7943 62.0336L55.905 62.5891C56.6547 62.964 57.4816 63.1592 58.32 63.1592C64.1879 63.1592 67.4101 56.3316 63.6799 51.802L54.6699 40.8615Z" fill="#F5F5F5"/>
</g>
<defs>
<filter id="filter0_d_256_17" x="18.1172" y="14.3896" width="60.7559" height="55.7695" filterUnits="userSpaceOnUse" color-interpolation-filters="sRGB">
<feFlood flood-opacity="0" result="BackgroundImageFix"/>
<feColorMatrix in="SourceAlpha" type="matrix" values="0 0 0 0 0 0 0 0 0 0 0 0 0 0 0 0 0 0 127 0" result="hardAlpha"/>
<feOffset/>
<feGaussianBlur stdDeviation="2"/>
<feComposite in2="hardAlpha" operator="out"/>
<feColorMatrix type="matrix" values="0 0 0 0 0 0 0 0 0 0 0 0 0 0 0 0 0 0 0.2 0"/>
<feBlend mode="normal" in2="BackgroundImageFix" result="effect1_dropShadow_256_17"/>
<feBlend mode="normal" in="SourceGraphic" in2="effect1_dropShadow_256_17" result="shape"/>
</filter>
<linearGradient id="paint0_linear_256_17" x1="2" y1="34" x2="94" y2="32" gradientUnits="userSpaceOnUse">
<stop stop-color="#89B4F9"/>
<stop offset="0.5" stop-color="#4286F5"/>
<stop offset="0.5" stop-color="#27C537"/>
<stop offset="1" stop-color="#49F15A"/>
</linearGradient>
</defs>
</svg>
