<svg width="100" height="134" viewBox="0 0 100 134" fill="none" xmlns="http://www.w3.org/2000/svg">
<path d="M100 48.3522C100 74.9898 50 133.24 50 133.24C50 133.24 0 74.9898 0 48.3522C0 21.7146 22.3858 0.120605 50 0.120605C77.6142 0.120605 100 21.7146 100 48.3522Z" fill="#EA4235"/>
<path d="M41.3337 26.1658C37.5045 26.1658 34.4004 29.1601 34.4004 32.8539V36.1979C34.4004 39.8917 37.5045 42.8861 41.3337 42.8861C45.1629 42.8861 48.2671 39.8917 48.2671 36.1979V32.8539C48.2671 29.1601 45.1629 26.1658 41.3337 26.1658Z" fill="#F5F5F5"/>
<path d="M58.6667 26.1658C54.8376 26.1658 51.7334 29.1601 51.7334 32.8539V36.1979C51.7334 39.8917 54.8376 42.8861 58.6667 42.8861C62.496 42.8861 65.6001 39.8917 65.6001 36.1979V32.8539C65.6001 29.1601 62.496 26.1658 58.6667 26.1658Z" fill="#F5F5F5"/>
<path d="M30.9333 42.886C27.1042 42.886 24 45.8804 24 49.5741V51.2461C24 54.9399 27.1042 57.9342 30.9333 57.9342C34.7625 57.9342 37.8667 54.9399 37.8667 51.2461V49.5741C37.8667 45.8804 34.7625 42.886 30.9333 42.886Z" fill="#F5F5F5"/>
<path d="M69.0671 42.886C65.2378 42.886 62.1338 45.8804 62.1338 49.5741V51.2461C62.1338 54.9399 65.2378 57.9342 69.0671 57.9342C72.8964 57.9342 76.0005 54.9399 76.0005 51.2461V49.5741C76.0005 45.8804 72.8964 42.886 69.0671 42.886Z" fill="#F5F5F5"/>
<path d="M57.3246 52.1789C53.5293 47.7333 46.4717 47.7333 42.6764 52.1789L32.5612 64.0272C28.3733 68.9326 31.9907 76.3266 38.5784 76.3266C39.5196 76.3266 40.448 76.1153 41.2899 75.7093L42.5367 75.1077C47.2353 72.8414 52.7657 72.8414 57.4643 75.1077L58.7112 75.7093C59.5529 76.1153 60.4813 76.3266 61.4225 76.3266C68.0102 76.3266 71.6276 68.9326 67.4399 64.0272L57.3246 52.1789Z" fill="#F5F5F5"/>
</svg>
