<svg width="90" height="90" viewBox="0 0 90 90" fill="none" xmlns="http://www.w3.org/2000/svg">
<path d="M37.0007 18.3335C33.1715 18.3335 30.0674 21.4377 30.0674 25.2668V28.7335C30.0674 32.5627 33.1715 35.6668 37.0007 35.6668C40.8299 35.6668 43.9341 32.5627 43.9341 28.7335V25.2668C43.9341 21.4377 40.8299 18.3335 37.0007 18.3335Z" fill="#F5F5F5"/>
<path d="M54.3337 18.3335C50.5045 18.3335 47.4004 21.4377 47.4004 25.2668V28.7335C47.4004 32.5627 50.5045 35.6668 54.3337 35.6668C58.163 35.6668 61.2671 32.5627 61.2671 28.7335V25.2668C61.2671 21.4377 58.163 18.3335 54.3337 18.3335Z" fill="#F5F5F5"/>
<path d="M26.6003 35.667C22.7712 35.667 19.667 38.7711 19.667 42.6003V44.3337C19.667 48.1628 22.7712 51.267 26.6003 51.267C30.4295 51.267 33.5337 48.1628 33.5337 44.3337V42.6003C33.5337 38.7711 30.4295 35.667 26.6003 35.667Z" fill="#F5F5F5"/>
<path d="M64.7341 35.667C60.9048 35.667 57.8008 38.7711 57.8008 42.6003V44.3337C57.8008 48.1628 60.9048 51.267 64.7341 51.267C68.5634 51.267 71.6674 48.1628 71.6674 44.3337V42.6003C71.6674 38.7711 68.5634 35.667 64.7341 35.667Z" fill="#F5F5F5"/>
<path d="M52.9916 45.3007C49.1963 40.6921 42.1387 40.6921 38.3433 45.3007L28.2282 57.5833C24.0403 62.6686 27.6577 70.3337 34.2454 70.3337C35.1866 70.3337 36.115 70.1146 36.9569 69.6938L38.2037 69.0701C42.9023 66.7208 48.4327 66.7208 53.1312 69.0701L54.3782 69.6938C55.2199 70.1146 56.1483 70.3337 57.0895 70.3337C63.6772 70.3337 67.2946 62.6686 63.1069 57.5833L52.9916 45.3007Z" fill="#F5F5F5"/>
<circle cx="45" cy="45" r="42.5" stroke="white" stroke-width="5"/>
</svg>
